<?xml version="1.0" encoding="UTF-8"?>
<svg id="Layer_1" data-name="Layer 1" xmlns="http://www.w3.org/2000/svg" xmlns:xlink="http://www.w3.org/1999/xlink" viewBox="0 0 352.82 341.6">
  <defs>
    <style>
      .cls-1 {
        fill: #fc0;
      }

      .cls-2 {
        fill: #2e2e2f;
      }

      .cls-3 {
        fill: url(#linear-gradient);
      }
    </style>
    <linearGradient id="linear-gradient" x1="176.41" y1="307" x2="176.41" y2="34.6" gradientUnits="userSpaceOnUse">
      <stop offset="0" stop-color="#909095"/>
      <stop offset="1" stop-color="#e5e5ea"/>
    </linearGradient>
  </defs>
  <rect class="cls-3" x="40.2" y="34.6" width="272.41" height="272.41" rx="45.28" ry="45.28"/>
  <g>
    <path class="cls-2" d="M181.2,144.61c-21.17-1.34-38.61,16.11-37.28,37.28,1.1,17.46,15.27,31.62,32.72,32.72,21.17,1.34,38.62-16.11,37.28-37.28-1.1-17.46-15.27-31.62-32.72-32.72Z"/>
    <path class="cls-2" d="M265.17,120.43h-33.65c-1.36-.07-2.52-.39-2.52-.39-5.75-1.55-10.3-6.16-11.62-12.01,0,0,0,0,0,0-.02-.06-.02-.12-.04-.18-1.51-4.8-5.68-8.41-10.84-9.11-.48-.09-.96-.15-1.47-.15h-52.19c-.5,0-.99.06-1.47.15-5.16.7-9.34,4.31-10.84,9.11-.02.06-.02.12-.04.17,0,0,0,0,0,0-1.33,5.85-5.87,10.46-11.62,12.01,0,0-1.15.32-2.52.39h-33.65c-7.53,0-13.64,6.11-13.64,13.64v95.3c0,7.53,6.11,13.64,13.64,13.64h172.48c7.53,0,13.64-6.11,13.64-13.64v-95.3c0-7.53-6.11-13.64-13.64-13.64ZM181.09,221.18c-24.7,1.25-44.98-19.04-43.73-43.73,1.07-21.15,18.25-38.33,39.4-39.41,24.7-1.25,44.99,19.04,43.74,43.74-1.07,21.15-18.26,38.33-39.4,39.4Z"/>
    <circle class="cls-1" cx="228.64" cy="140.94" r="5.04"/>
    <rect class="cls-2" x="100.74" y="107.4" width="18.15" height="7.78"/>
  </g>
</svg>